<svg width="389" height="413" viewBox="0 0 389 413" fill="none" xmlns="http://www.w3.org/2000/svg">
<path d="M72.3221 -6.20322L81.0581 59.3353C89.9122 47.7573 98.764 36.1826 107.613 24.6122L181.608 14.7491L206.089 -17.3385L222.929 108.995L96.6171 125.832L166.506 34.5218L117.14 41.1022L84.3083 84.0449L90.8887 133.411L230.401 114.815L211.791 -24.7939L72.3221 -6.20322Z" fill="#E2E2E2" fill-opacity="0.1"/>
<path d="M-48.5937 151.906L-39.8576 217.444C-31.0029 205.866 -22.1513 194.291 -13.3027 182.721L60.6923 172.858L85.1735 140.77L102.013 267.103L-24.2984 283.941L45.5903 192.63L-3.77568 199.211L-36.6075 242.155L-30.0273 291.52L109.485 272.924L90.8759 133.314L-48.5937 151.906Z" fill="#E2E2E2" fill-opacity="0.1"/>
<path d="M230.431 114.713L239.167 180.252C248.021 168.673 256.873 157.1 265.722 145.529L339.717 135.665L364.199 103.578L381.038 229.912L254.726 246.748L324.614 155.439L275.249 162.019L242.417 204.962L248.997 254.328L388.51 235.731L369.9 96.123L230.431 114.713Z" fill="#E2E2E2" fill-opacity="0.1"/>
<path d="M109.515 272.822L118.251 338.361C127.106 326.782 135.957 315.208 144.806 303.638L218.802 293.775L243.283 261.687L260.122 388.02L133.81 404.857L203.699 313.547L154.333 320.128L121.502 363.07L128.069 412.34L267.581 393.743L248.985 254.231L109.515 272.822Z" fill="#E2E2E2" fill-opacity="0.1"/>
</svg>
