<svg width="120" height="120" viewBox="0 0 120 120" fill="none" xmlns="http://www.w3.org/2000/svg">
<g clip-path="url(#clip0_256_5680)">
<path d="M19.3267 89.0621C13.2449 80.5307 9.98379 70.3107 10.0001 59.8335C10.0001 31.9817 32.5804 9.40137 60.4347 9.40137C71.6909 9.40137 82.5854 12.5345 90.9849 18.7556" stroke="#212833" stroke-width="3" stroke-linecap="round" stroke-linejoin="round"/>
<path d="M100.811 29.6104C107.353 38.3273 110.88 48.9357 110.862 59.8339C110.862 87.6882 88.2813 110.269 60.4296 110.269C49.123 110.269 38.4296 106.917 30.0276 100.635" stroke="#212833" stroke-width="3" stroke-linecap="round" stroke-linejoin="round"/>
<path d="M73.7161 21.3718L91.0452 18.7588L82.9849 3" stroke="#212833" stroke-width="3" stroke-linecap="round" stroke-linejoin="round"/>
<path d="M47.9849 97.6836L30.0251 100.636L39.1985 117.998" stroke="#212833" stroke-width="3" stroke-linecap="round" stroke-linejoin="round"/>
<path d="M89.4797 57.9004V73.9406L61.7335 87.8124L32.2537 73.9406V58.0637" stroke="#ED1847" stroke-width="3" stroke-linecap="round" stroke-linejoin="round"/>
<path d="M32.2537 42.7227L61.7335 54.8633L89.4797 42.7227" stroke="#ED1847" stroke-width="3" stroke-linecap="round" stroke-linejoin="round"/>
<path d="M61.7336 54.8623V87.8095" stroke="#ED1847" stroke-width="3" stroke-linecap="round" stroke-linejoin="round"/>
<path d="M61.7336 54.8633L53.0627 67.8684L23.5829 53.9965L32.2537 42.7227" stroke="#ED1847" stroke-width="3" stroke-linecap="round" stroke-linejoin="round"/>
<path d="M32.2537 42.7222L60.8667 33.1846L89.4797 42.7222" stroke="#ED1847" stroke-width="3" stroke-linecap="round" stroke-linejoin="round"/>
<path d="M89.4798 42.7227L97.2838 53.9965L71.2713 67.0015L61.7336 54.8633" stroke="#ED1847" stroke-width="3" stroke-linecap="round" stroke-linejoin="round"/>
<path d="M60.8668 33.1846V45.3253" stroke="#ED1847" stroke-width="3" stroke-linecap="round" stroke-linejoin="round"/>
</g>
<defs>
<clipPath id="clip0_256_5680">
<rect width="120" height="120" fill="white"/>
</clipPath>
</defs>
</svg>
